<svg xmlns="http://www.w3.org/2000/svg" viewBox="0 0 736.449 263.06" >
  <defs/>
  <defs>
    <style>
      .a{fill:#a03400;}.b{fill:#ffca00;}.c{fill:#694f19;}.d{fill:#951b1c;}.e{fill:#5b6069;}.f{fill:#f7f4ec;}.g{fill:#796234;}.h{fill:#7f6637;}.i{fill:#565a64;}.j{fill:#fdc857;}.k{fill:#fcc856;}.l{fill:#eead21;}.m{fill:#fafaf6;}.n{fill:#eeae21;}.o{fill:#edad21;}.p{fill:#fbc756;}.q{fill:#ecad21;}.r{fill:#9fada8;}.s{fill:#ecac21;}.t{fill:#ebac21;}.u{fill:#869c92;}.v{fill:#ebac22;}.w{fill:#f4c657;}.x{fill:#5c5e66;}.y{fill:#646368;}.z{fill:#84611e;}.aa{fill:#ebad25;}.ab{fill:#7c5e1c;}.ac{fill:#946f1d;}.ad{fill:#9f7923;}.ae{fill:#ed3e3e;}.af{fill:#f4dad8;}.ag{fill:#f9e4e2;}.ah{fill:#f1dad7;}.ai{fill:#a7b4b0;}.aj{fill:#e9e2d5;}.ak{fill:#e5e3e0;}.al{fill:#675017;}.am{fill:#e9dfc3;}.an{fill:#fdfdfd;}.ao{fill:#ced1db;}.ap{fill:#c6c9d3;}.aq{fill:#a5aab6;}.ar{fill:#595a66;}.as{fill:#f5f6f4;}.at{fill:#f5f6f3;}.au{fill:#847c6c;}.av{fill:#605e66;}.aw{fill:#6b6765;}.ax{fill:#666568;}.ay{fill:#6e6864;}.az{fill:#efaf22;}.ba{fill:#807363;}.bb{fill:#efae21;}.bc{fill:#ecad23;}.bd{fill:#9fabaa;}.be{fill:#ec3e3d;}.bf{fill:#ed3f3f;}.bg{fill:#e84e53;}.bh{fill:#f2f3f2;}.bi{fill:#5a5e6a;}.bj{fill:#9eaca7;}
    </style>
  </defs>
  <path d="M736.449 96.135l-13.3 1.6c-5.911.71-13.861 1.434-20.981 1.877 6.162-18.285 12.347-35.5 23.035-61.444l4.437-10.771-11.646-.274a248.54 248.54 0 00-5.965-.075 147.6 147.6 0 00-24.775 1.93l.4-.995-11.448-.335a538.664 538.664 0 00-15.641-.223c-13.1 0-31.609.461-46.582 2.588l.527-1.782-10.082-.573c-8.262-.47-17.111-.708-26.3-.708v4-4c-14.736 0-30.1.612-44.437 1.77l-1.944.157-6.571-.667a164.637 164.637 0 00-16.961-.987c-3.484 0-6.878.148-10.376.452a90.146 90.146 0 00-26.883 6.356c-10.482 4.433-18.01 10.648-22.375 18.475-2.715 4.579-5.311 11.96-4.574 19.149 1.195 14.908 10.991 22.326 20.431 27.615a25.163 25.163 0 013.029 1.99 23.082 23.082 0 01-4.1.634c-1.011.063-2.165.1-3.43.1a90.1 90.1 0 01-15.8-1.4l-3.958-.809c.132-15.5-.037-31.226-.211-46.646q-.1-9.081-.185-18.085l-.063-7.669-7.664-.261c-4.208-.143-7.666-.21-10.882-.21a160.941 160.941 0 00-25.655 1.877l-4 .631-1.86 3.6c-6.931 13.395-13.629 27.2-20.164 41.1a53.878 53.878 0 001.563-13.2c-.184-17.682-9.449-26.083-17.189-30.024-8.142-4.146-17.433-4.961-25.447-5.212a73.537 73.537 0 00-2.479-.042 108.689 108.689 0 00-30.9 5.011l-3.845 1.234-1.292 3.826c-8.959 26.549-16 52.342-22.8 77.286q-2.166 7.941-4.345 15.867l-3.011 10.914 7.325-.523c-.089.032-.184.064-.271.1l-3.617 1.33-1.215 3.658c-5.1 15.369-8.457 27.809-12.341 42.215l-1.6 5.943-2.013 7.433 7.351 2.3a49.905 49.905 0 0014.717 2.16c10.09 0 19.023-2.43 26.07-7.056l-1.665 6.776h10.2c1.254 0 2.716.008 4.325.017 2 .01 4.225.022 6.558.022 4.7 0 11.642-.042 17.583-.4l4.5-.273 2.1-3.995a124.741 124.741 0 006.028-13.388l4.816-12.441-2.36.287c.461-1.488.895-2.984 1.357-4.668l.472-1.721 1.008.046 2.054-5.422a814.34 814.34 0 015.39-13.888l4.254-10.634-2.533-.074q1.443-.066 2.915-.1l-.876 2.672c-9.755 29.739-16.312 56.007-23.156 86.3l-2.475 10.954 11.161-1.24a95.006 95.006 0 0110.392-.537c3.748 0 7.629.185 11.534.551l6.61.62 1.338-4.674 4.231 1.322a81.5 81.5 0 0023.657 3.489c18.438 0 34.382-4.972 46.108-14.379a60.883 60.883 0 008.835-8.737v.014q-1.536 6.324-3.1 12.711l-2.436 9.909h10.2c2.168 0 4.7.014 7.477.029 3.436.018 7.254.038 11.26.038 8.026 0 19.861-.071 29.939-.682l4.5-.273 2.1-4a197.783 197.783 0 002.938-5.834l-.162.715-2.475 10.954 11.161-1.24a95.006 95.006 0 0110.392-.537c2.774 0 5.62.1 8.495.3l-.287.632 3.8-.34 6.132.575.33-1.153 3.411-.3c3.113-.279 6.407-.42 9.788-.42 3.408 0 6.94.144 10.5.426l4.965.4 2.545-4.281c1.956-3.291 3.623-6.555 5.234-9.712l.008-.017a322.07 322.07 0 018.248-.309 184.81 184.81 0 01-.343 6.447l-.706 9.65 9.611-1.12a95.5 95.5 0 0110.964-.533c3.372 0 6.8.1 10.316.222l7.887.262.024-.5a116.3 116.3 0 0018.669 1.533c22.917 0 40.738-7.029 50.18-19.793l.117-.158.109-.163a28.005 28.005 0 004.266-11c1.7-11.536-7.216-17.846-12.545-21.616-.418-.295-.832-.588-1.237-.88a40.64 40.64 0 00-5.532-3.176 44.643 44.643 0 01-5.617-3.212 8.241 8.241 0 013.606-3.168c.967-.46 3.967-1.22 9.246-1.219a39.183 39.183 0 018.187.744l7.666 1.834 1.947-7.639 6.25-24.516 2.294-9-8.564-.868a212.638 212.638 0 0011.264-24.951zM320.203 75.104q.227-.844.449-1.682a539.238 539.238 0 012.308-8.473 18.048 18.048 0 013.174-.278c.39 0 .784.012 1.174.036.289 1.663-.984 6.1-3.561 8.641a10.2 10.2 0 01-3.544 1.756zm152.547 83.979c-1.965-8.016-5.811-14.368-11.487-18.975a101.983 101.983 0 0017.916-1.684l-.764 2.341a619.852 619.852 0 00-5.665 18.318zm176.022-3a30.48 30.48 0 00-4.279 17.943c1.122 13.965 10.255 20.892 19.055 25.824.561.319 1.051.621 1.478.9-.629.1-1.35.194-2.169.254-.913.057-1.957.086-3.1.086a81.736 81.736 0 01-14.343-1.264l-3.088-.631c.112-14.036-.04-28.265-.2-42.221q-.093-8.313-.169-16.555l-.017-1.977 4.4-.266 2.1-4a214.522 214.522 0 006.256-12.961c-.647 2.586-1.3 5.19-1.957 7.837l-2.472 9.933h10.235c2.63 0 5.624 0 8.857-.01-9.622 4.116-16.546 9.867-20.587 17.106zm-225.88 38.554l1.194-4.079c2.027-6.933 4.111-14.057 6.278-20.813 1.169.1 1.869.289 1.869 3.55a29.764 29.764 0 01-9.341 21.34zm91.377-75.809l.117-.157.108-.162a29.794 29.794 0 004.542-11.7c1.792-12.148-7.71-18.872-13.387-22.889-.459-.324-.914-.646-1.359-.967a43.867 43.867 0 00-5.939-3.406 42.1 42.1 0 01-6.67-3.923c.481-1.616 2.481-3.336 4.485-4.347 1.466-.7 5.239-1.4 10.412-1.4a42.868 42.868 0 019.1.833l2.266.542-.076.458 1.706-.068 3.771.9.271-1.064 4.08-.164c1.307-.052 2.655-.115 4.028-.178 2.005-.093 4.046-.188 6.071-.256-2.194 8.778-4.305 17.773-6.366 26.551-2.608 11.114-5.072 21.611-7.6 31.279l-1.071 4.1c-8.945.11-19.495.487-29.245 1.46 8.773-3.607 15.838-8.794 20.756-15.444zM660.66 97.742l-.248.03.019-.056c.327-.926.637-1.817.937-2.686-.236.901-.473 1.803-.708 2.71zm-76.289 17.594q-1.677 6.9-3.385 13.875l-1.049 4.269-1.041-.029c-2.919-.081-6.228-.173-9.6-.173v4-4c-1.807 0-3.521.029-5.164.086l.22-.814c3.518-13.033 7.822-27.507 11.984-41.505 2.018-6.788 4.09-13.755 6.036-20.445q.828-.009 1.688-.009c4 0 7.875.143 11.537.3-4.035 14.851-7.573 29.411-11.226 44.443zm-199.185 21.94v-4c-.542 0-1.06.008-1.586.013 1.938-3.322 3.633-6.623 5.266-9.822l.2-.391c3.608-.2 6.963-.3 10.218-.381-.1 2.672-.22 5.312-.405 7.839l-.221 3.022-3.867-.107c-2.919-.081-6.228-.173-9.6-.173v4zm201.078 6.7l1.619-4.858h.872c1.668 0 3.539.008 5.556.018-6.336 12.283-12.466 24.924-18.441 37.652 3.251-10.746 6.654-21.593 10.394-32.812zm-237.046-25.737l-3.81 8.388-4.807 10.577a188.19 188.19 0 00-25.851 1.533l-4.871.741-1.53 4.684c-.245.75-.469 1.481-.706 2.224a22.153 22.153 0 00-10.337-7.792h1.9l2.019-5.01c2.442-6.06 3.66-9.65 5.5-15.083.456-1.347.942-2.779 1.493-4.388q2.49.15 4.916.15c17.47 0 32.356-5.679 43.048-16.424a50.5 50.5 0 005.018-5.88 6814.359 6814.359 0 00-11.982 26.28z" class="a"/>
  <path d="M301.464 43.163c6.951-2.23 19.279-4.984 30.689-4.591 12.591.393 34.624 2.1 34.886 27.279.131 26.755-22.3 49.706-60.328 44.591-4.591 13.115-5.378 16.263-8.919 25.05-6.557 0-16-.131-23.344.393 8.393-30.422 16.262-60.852 27.016-92.722zm31.607 41.049c6.558-6.164 10.23-20.852-.787-22.557a24.827 24.827 0 00-11.8 1.836c-2.492 8.131-4.459 16.656-6.951 24.918 7.997 1.054 15.079-.393 19.538-4.196z" class="b"/>
  <path d="M356.679 134.836c13.771-30.294 28.46-63.082 44.066-93.247 12.46-1.966 23.476-1.966 35.017-1.573.262 31.869 1.049 64.919-.393 95.608-7.869-.262-16.656-.525-24.525.393.393-5.377.524-11.147.656-16.656-7.476.263-14.558.263-23.476.918-2.492 4.722-4.853 9.705-7.738 14.557a141.923 141.923 0 00-23.607 0zm58.624-37.639c.131-10.885-.525-22.951-1.18-34.1-6.689 11.017-12.722 22.951-18.624 33.837a143.4 143.4 0 0119.804.263z" class="b"/>
  <path d="M446.513 113.329a96.182 96.182 0 0021.378 1.442c14.557-1.049 18.754-9.442 4.459-17.574-9.837-5.508-15.607-11.148-16.394-21.377-.525-4.853 1.18-10.492 3.541-14.427 7.607-13.77 27.541-19.541 43.017-20.852a130.833 130.833 0 0125.837.524l-6.82 26.755c-6.033-1.444-19.017-1.705-24.919 1.18-4.721 2.361-9.18 6.82-9.049 12.459 0 6.164 11.935 9.836 16 12.853 5.64 4.065 12.722 8.262 11.542 16.262a22.026 22.026 0 01-3.279 8.393c-14.164 19.149-46.952 20.2-68.854 16.132z" class="b"/>
  <path d="M607.958 40.541c-2.754 9.311-5.508 18.492-7.345 27.279-6.164-.263-13.246-.526-20.328-.132-6.164 21.509-13.9 46.3-19.672 67.674a159.69 159.69 0 00-25.049.262c5.376-20.59 10.623-45.509 16.524-67.8-6.557-.394-14.164.131-20.721.393 1.442-8.656 3.409-17.837 6.95-26.624a531.16 531.16 0 0169.641-1.052z" class="b"/>
  <path d="M662.646 81.59c-1.836 6.689-3.411 11.672-5.771 18.361a293.66 293.66 0 00-30.427.132c-1.311 4.589-2.754 8.787-4.2 13.376 8.524 0 24-.524 33.7-1.705a221.091 221.091 0 01-10.623 23.608c-17.312 1.049-40.263.655-52.591.655 7.607-30.951 14.3-60.46 24.918-92.984 18.1-2.755 44.329-3.017 62.3-2.492-3.409 8.524-6.95 17.705-10.229 26.361a286.369 286.369 0 00-33.312.918c-1.574 4.721-3.148 9.836-4.59 14.688 8.791-1.311 22.956-1.18 30.825-.918z" class="b"/>
  <path d="M728.086 110.574a204.779 204.779 0 01-10.886 24.132c-17.7 1.18-40 1.18-52.721 1.18 7.869-31.607 15.212-60.591 25.967-93.772a148.261 148.261 0 0131.344-2.1c-12.59 30.558-18.885 48.787-26.885 72.919 8.527.002 23.346-1.179 33.181-2.359z" class="b"/>
  <path d="M372.476 233.113a118.694 118.694 0 00-23.555 0c6.49-28.723 13.1-55.523 22.955-85.567 8.652-1.682 18.026-1.442 26.679-1.2-9.975 29.923-17.546 56.963-26.079 86.767z" class="b"/>
  <path d="M410.086 148.507a75.223 75.223 0 0121.873-4.326c17.786-.36 34.852 3.606 37.856 26.2 2.4 18.147-6.73 39.3-21.151 50.835-10.936 8.774-25.839 12.619-41.1 12.619a72.878 72.878 0 01-21.271-3.125c7.814-28.847 13.943-52.518 23.793-82.203zm34.131 29.685c0-8.653-4.927-11.177-9.374-11.537a19.562 19.562 0 00-6.61.961c-4.807 14.3-9.013 30.285-13.58 44.706 16.709.361 29.568-16.945 29.568-34.13z" class="b"/>
  <path d="M531.229 183.479c-1.683 6.13-3.125 10.7-5.289 16.825a269.931 269.931 0 00-27.881.12c-1.2 4.206-2.523 8.052-3.846 12.259 7.812 0 21.993-.481 30.887-1.562a202.811 202.811 0 01-9.735 21.631c-15.863.962-36.9.6-48.192.6 6.971-28.361 13.1-55.4 22.834-85.206 16.585-2.523 40.621-2.764 57.085-2.283-3.125 7.811-6.369 16.223-9.374 24.155a262.473 262.473 0 00-30.525.842c-1.442 4.326-2.884 9.014-4.207 13.46 8.053-1.201 21.032-1.081 28.243-.841z" class="b"/>
  <path d="M556.586 233.113a118.693 118.693 0 00-23.555 0c6.49-28.723 13.1-55.523 22.954-85.567 8.653-1.682 18.027-1.442 26.68-1.2-9.979 29.923-17.549 56.963-26.079 86.767z" class="b"/>
  <path d="M565.476 232.272c12.618-27.762 26.078-57.806 40.38-85.447 11.417-1.8 21.511-1.8 32.087-1.442.241 29.2.961 59.489-.36 87.61-7.211-.241-15.263-.481-22.474.36.361-4.927.481-10.215.6-15.263-6.85.242-13.34.242-21.512.842-2.283 4.326-4.446 8.893-7.091 13.34a129.658 129.658 0 00-21.63 0zm53.719-34.491c.12-9.975-.481-21.031-1.081-31.246-6.13 10.094-11.658 21.031-17.066 31.006a131.265 131.265 0 0118.147.24z" class="b"/>
  <path d="M647.795 212.563a88.1 88.1 0 0019.59 1.321c13.34-.961 17.185-8.652 4.086-16.1-9.014-5.048-14.3-10.215-15.023-19.589a22.828 22.828 0 013.245-13.22c6.971-12.619 25.238-17.907 39.418-19.108a119.989 119.989 0 0123.676.48l-6.25 24.517c-5.527-1.322-17.426-1.563-22.834 1.081-4.326 2.164-8.412 6.25-8.292 11.417 0 5.648 10.937 9.014 14.661 11.778 5.168 3.725 11.659 7.571 10.577 14.9a20.193 20.193 0 01-3 7.691c-12.98 17.546-43.025 18.508-63.094 14.782z" class="b"/>
  <path d="M273.54 151.754a43.679 43.679 0 0112.7-2.512c10.327-.209 20.236 2.093 21.98 15.212 1.4 10.536-3.907 22.817-12.28 29.516-6.351 5.094-15 7.326-23.865 7.326a42.35 42.35 0 01-12.351-1.813c4.535-16.747 8.093-30.494 13.816-47.729zm19.817 17.235c0-5.024-2.861-6.489-5.443-6.7a11.349 11.349 0 00-3.838.558c-2.791 8.3-5.233 17.584-7.885 25.957 9.695.212 17.166-9.841 17.166-19.815z" class="b"/>
  <path d="M343.875 172.063c-.976 3.56-1.814 6.211-3.07 9.77a156.59 156.59 0 00-16.189.069c-.7 2.442-1.465 4.676-2.233 7.118 4.536 0 12.77-.279 17.933-.907a117.389 117.389 0 01-5.651 12.559c-9.211.559-21.423.349-27.982.349 4.048-16.467 7.606-32.167 13.258-49.473 9.63-1.464 23.585-1.6 33.145-1.325-1.814 4.535-3.7 9.42-5.443 14.026a152.384 152.384 0 00-17.724.488 257.638 257.638 0 00-2.442 7.815c4.675-.702 12.209-.632 16.398-.489z" class="b"/>
  <g>
    <path d="M129.244 58.634c4.963-6.606 7.39-13.84 6.367-22.259-.853-7.011.629-13.486 6.465-18.249 7.824-6.386 14.411-6.316 20.694 1.515 4.093 5.1 9.828 7.92 14.769 11.223 8.909 5.958 13.92 15.766 23.168 21a7.953 7.953 0 011.141.89c3.589 3.007 13.965 23.03 14.062 27.889.048 2.424 1.209 4.037 2.372 5.851 5.082 7.92 7.979 16.348 5.661 25.885-1.095 4.5 2.411 8.227 2 12.626-1.373 14.7 1.15 29.643-2.891 44.189-.42 1.514.2 3.318.338 4.987a7.374 7.374 0 01.667 2.929 32.418 32.418 0 01-1.295 4.846 10.21 10.21 0 01-2.4 4.344c-.8 9.339-6.5 17.169-8.166 26.192-1.469 7.941-7.886 12.929-10.986 19.843-.432 1.364.122 3.07-.889 4.153-9.312 9.987-18.2 20.681-33.679 20.682-6.454 0-11.968-3.863-14.6-11.8-1.965-5.914-4.244-8.852-10.518-4.95-1.786 1.111-4.1 1.315-6.22 1.728-9.277 1.812-14.105-1.879-14.839-11.3-.906-4.805-3.718-8.727-5.98-12.9-.336-1.495.494-1.839 1.746-1.775 5.455 3.2 6.3 9.128 8.452 14.287.757 2.028 1.346 4.179 3.551 5.21 1.577.738 3.352 1.179 4.889.373 2.275-1.192.584-2.9.128-4.353-.432-1.379-1.118-2.713-.85-4.193.381-2.116 1.344-3.145 3.375-1.421a20.551 20.551 0 011.755 2.278c1.547 1.736 2.105 6.281 5.205 4.07 2.33-1.663-.942-4.179-2.466-5.788-3.273-3.454-4.037-8.187-6.558-11.991-2.189-3-4.4-5.987-6.31-9.18-2.285-4.657-5.249-8.964-7.182-13.808-4.8-9.911-7.511-20.494-10.047-31.135a21.064 21.064 0 01-.4-3.3 23.255 23.255 0 00-1.022-6.6 18.424 18.424 0 01-.539-3.535c-.119-13.654-.748-27.319.986-40.915a24.67 24.67 0 011-7.846c1.614-5.537 2-11.416 4.536-16.709.938-1.959.335-3.755-.589-5.519.278-3.9 4.68-3.331 6.352-5.881 1.57-2.394 2.991-4.744 3.4-7.612.421-.953.873-1.86 2.171-1.151 2.156.29 2.848-1.058 3.176-2.82z" class="c"/>
    <path d="M111.564 97.911a12.981 12.981 0 01-1.3 7.012c.492 8.794-5.378 13.09-11.93 16.908-1.5.65-3.078 1.119-4.585 1.765a45.233 45.233 0 01-3.467 1.4 36.662 36.662 0 00-4.234 1.651 35.026 35.026 0 01-3.365 1.431c-2.581.9-5.2 1.694-7.727 2.739a19.3 19.3 0 01-3.345 1.2c-1.454.27-2.813-.5-4.256-.406-4.946 1.878-9.824 3.963-14.848 5.593-14.449 4.686-26.719-.606-30.779-15.171-4.266-15.306-15.586-26.8-20.147-41.861-4.2-13.876-.2-21.818 14.256-24.429 2.029-.367 3.594-.811 4.841-2.545 2.22-3.087 5.635-5.488 9.059-5.385 7.669.231 12.21-5.91 18.66-7.859 2.743-.829 2.529-2.243 1.7-4.327-1.6-4.028-3.219-8.06-4.533-12.186-3.37-10.569.454-19.131 9.822-22.382 9.143-3.171 17.2.827 21.278 10.837a152.434 152.434 0 016.4 17.648c4.656 17.266 18.094 30.522 21.722 48.21.289 1.4.786 2.761 1.186 4.14 1.962 1.031 3.676 2.292 4.264 4.6.901 3.749 2.353 7.443 1.328 11.417z" class="d"/>
    <path d="M67.353 131.617l3.85-.618c3.2 1.357 4.2 4.567 5.807 7.174 6.676 10.846 15.815 17.34 28.989 17.124a7.36 7.36 0 015.408 1.636l.041 2.729c-4.5 3.971-9.463 2.033-14.337 1.135a16.507 16.507 0 00-5.89-.842c-7.422-7.5-16.431-13.628-20.527-24-.676-1.708-1.205-3.682-3.341-4.338z" class="e"/>
    <path d="M91.221 159.955c.435-4.741 2.971-.528 4.4-1.032a7.591 7.591 0 012.368 5.153c.927 10.341 5.379 19.968 6.087 30.346a2.811 2.811 0 01-2.508 2.159c-6.552-9.467-9.223-20.2-10.28-31.467z" class="f"/>
    <path d="M91.283 165.113c3.03 10.489 4.813 21.4 10.534 30.974 3.576 2.545 5.133 6.67 7.8 9.928 1.269 3.931 7.093 5.258 6.038 10.518l-1.177 1.411c-10.972-11.027-17.74-24.451-22.314-39.126.075-4.592-4.167-8.906-.881-13.705z" class="g"/>
    <path d="M108.674 86.346l-2.7-4.451c3.987-1.32 1.58-4.259 1.569-6.513-.028-5.9 1.6-11.033 6.921-14.142 3.757-2.2 7.824-4.238 11.6.206l-1.447 1.192c-6.287 1.243-12.661 2.384-12.489 10.986-.841 4.331 2.316 9.748-3.454 12.722z" class="h"/>
    <path d="M120.462 230.849c5.239 12.41 16 13.669 28.217 3.158 3.056 2.714 3.389 6.716 4.666 10.2 3.636 9.929 7.064 11.9 17.347 10.338 8.094-1.228 15.043-3.215 19.721-11.252 2.411-4.143 8.927-5.481 10.8-10.962 2.885 1.672 5.785 3.319 8.653 5.018 7.673 4.546 7.712 10.7.142 15.5-7.679 4.866-16.322 7.069-25.114 8.268-21.307 2.907-42.583 2.957-63.57-2.621-4.882-1.3-9.686-2.916-13.749-6.077-6.769-5.266-6.354-10.634.851-15.439 3.796-2.537 8.803-2.576 12.036-6.131z" class="a"/>
    <path d="M223.091 177.082q.148-1.453.3-2.9c8.384 4.907 11.941 4.551 16.028-1.46 1.875-2.761 3.323-5.378 0-8.123a2.886 2.886 0 01-1.035-1.862c-.31-13.537-5.733-27.4 2.5-40.4.257-.4.536-1.106.839-1.125 7.534-.455 12.342-9.512 20.914-6.631a3.536 3.536 0 001.395.341c15.112-1.814 18.1 10.565 23.42 20.1 1.847 3.31 1.089 6.744-1.4 9.374-3.918 4.131-7.843 8.4-13.708 9.9-.425-4.994 3.889-6.712 6.671-9.37 5.4-5.16 3.551-18.989-2.984-18.5-6.157.464-12.322-7.263-18.531 0-1.6 1.873-4.489-1.792-6.876-2.7-4.44-1.609-6.226-.216-5.11 4.489a4.691 4.691 0 01-.2 1.984c-4.172 5.323-8.049 10.7-3.631 17.777.02 3.425 6.184 5.822 1.739 10.027-.2 6.512 7.311 11.343 14.608 9.4a7.5 7.5 0 004.7-3.116c1.4-1.95 1.733-4.372 2.842-6.416 1.438-2.655 2.922-5.624 6.906-3.713-1.345 2.429-2.914 4.667-3.409 7.591-.342 2.024-1.357 4.873-2.9 5.6-8.126 3.825-10.842 12.316-16.531 18.167-8.221 8.453-15.6 8.555-29.271.78-.058-1.6-.328-3.261 1.118-4.491 1.847-.045 3.022 1.275 4.43 2.149 9.058 5.616 18.76 3.139 23.932-6.068.819-1.46 2.085-2.929.191-4.406a4.34 4.34 0 00-4.765-.407c-2.448 1.2-3.706 3.7-5.674 5.443-5.689 5.036-11.616 4.533-16.508-1.434z" class="i"/>
    <path d="M136.194 55.516c1.04-6.22 3.4-12.254 2.653-18.726-.421-1.534-1.2-3.457.635-4.256 2.168-.944 3.867.755 5.453 2.091 4.141 7.234 9.5 13 18.067 14.861 2.111.331 4.115.886 5.536 2.646 2.156 4.641 2.635 10.551 9.055 11.98 2.368.735 4.676 1.565 5.943 3.948.465 4.448 2.761 8.188 4.7 12.067l1.849 1.347c.463 1.248-.242 1.946-1.186 2.53-4.082 1.053-8.594.233-12.5 3.009 5.716.983 12.828-1.566 15.59 6.27-.673 4.337-.568 8.778-1.762 13.044-4.493 1.5-9.013-2.864-13.491.074-3.827 1.784-5.355 4.949-5.408 9a29.008 29.008 0 00.141 5.033c1.5 8.648 7.9 11.321 15.072 6.3 1.174-.822 2.21-1.859 3.729-2.075a2.293 2.293 0 011.828 1.063c1.292 3.254 2.326 6.532 1.143 10.063-2.29 3-5.61 4.359-9 5.574a92.246 92.246 0 01-41.405 5.305c-3.3 2.607-1.717 4.811.586 6.954 2.54 3.423 2.429 7.7 3.645 11.54 1.48 4.689 4.353 7.437 9.331 7.338 4.58-.091 8.951 1.985 13.515 1.269 3.073-.483 6.11-1.389 7.844-4.415.328-.6.693-1.179 1.057-1.757 4.464-8.535 7.527-17.669 11.374-26.469a6.564 6.564 0 012.651-3.244c3.8.267 4.377 3.226 3.225 5.552-2.274 4.585-1.331 9.149-1.2 13.772-1.1 4.018-2.043 8.059-1.77 12.271a14.156 14.156 0 01-.152 2.027c-1.636 5.429-6.188 10.08-4.383 16.441-6.547 8.175-7.865 18.484-11.362 27.9-.407 1.1-.423 2.334-.813 3.465-2.318 4.177-6.075 7.406-7.865 11.939a34.071 34.071 0 01-14.593 5.365c-3.85-11.262-13.682-18.593-18.986-28.9a139.053 139.053 0 01-17.361-53.079c-2.594-21.864-2.493-43.646 2.707-65.227 2.999-12.416 10.794-22.509 15.908-33.89z" class="j"/>
    <path d="M115.659 216.534l-6.964-9.4c-1.4-4.388-5.239-7.712-5.49-12.6-3.622-11.636-6.916-23.345-7.585-35.61a48.307 48.307 0 0015.829.741c3.11 10.879 5.9 21.866 10.375 32.307a10.19 10.19 0 01.742 6.157c-.689 5.008 1.576 6.9 6.251 6.737l5.967 8.913c.613 7.266-3.206 12.986-11.387 17.057-2.346-4.896-3.871-10.234-7.738-14.302z" class="k"/>
    <path d="M175.294 219.315c-1.183-5.353 2.21-9.724 3.42-14.52 1-3.963 3.206-7.557 3.616-11.9.276-2.9 2.688-5.039 5.985-5.419q1.986-.546 1.5 1.454c3.984 6.895 10.269 10.615 17.761 12.315 3.695.837 4.753 2.63 3.813 6.084-.954 3.51-2.674 5.453-6.748 4.34-7.051-1.928-12.89-5.9-18.568-10.325 2.958 6.525 8.756 9.545 14.927 11.994 2.977 1.182 7.615 1.019 5.709 6.08-1.665 4.418-4.982 7.038-10.263 5.226-6.258-2.15-11.609-5.64-17.084-12.146 2.33 9.061 8.562 11.173 14.233 13.878 1.828.873 4.812.47 4.791 3.452-.028 3.673-2.282 6.212-5.287 8.1-2.237 1.405-4.216 1.563-6.538-.294-4.649-3.721-8.133-8.124-9.774-13.9-1.299-1.198-2.315-2.499-1.493-4.419z" class="l"/>
    <path d="M194.18 157.079c-1.624-4.575-4.18-9 .69-13.495 1.93-1.781.08-3.911-1.636-5.381-1.557-.8-1.347-1.886-.51-3.08a23.655 23.655 0 01-1.411-10c-.331-1.422.529-1.86 1.693-2.05 1.879.515 3.452 1.253 2.677 3.692 6.281 5.069 13.559 8.005 21.284 10.029 6.133 1.605 8.929 10.915 4.947 15.686-1.781 2.133-3.535.848-5.252.526-7.568-1.418-13-6.584-18.934-10.933 4.18 7.495 10.518 12.318 18.9 13.6 6.526 1 5.275 5.155 4.654 9.116-.744 4.752-4.077 4.405-7.709 3.531-7.354-1.769-12.1-7.637-18.239-11.313-.339.767-.725.755-1.154.072z" class="l"/>
    <path d="M136.195 55.516c-.247 5.487-2.868 10.185-5.5 14.687-11.429 19.531-12.667 40.952-12.555 62.791.135 26.184 6.951 50.768 16.81 74.714-14.316-18.758-20.092-40.489-21.776-63.538-1.108-15.177.058-30.346 1.8-45.4 1.947-16.798 10.904-30.423 21.221-43.254z" class="m"/>
    <path d="M144.925 35.364c-1.771 1.551-5.654-5.854-6.075 1.428-1.589-8.459 1.093-14.532 7.691-18.252 5.14-2.9 10.046-2.98 13.315 2.14 3.74 5.858 11.655 6.6 15.1 12.944-9.515 4.9-19.109 1.988-28.54 1.759-.504.697-1.001.659-1.491-.019z" class="l"/>
    <path d="M144.925 35.364l1.495.019c8.4 4.834 17.23 4.341 26.2 2.116 7.085-1.759 16.2 2.829 17.693 9.648 1.047 4.792-3.812 3.255-6.206 4.292-4.881 2.81-9.911 2.063-14.909.5-2.177-.681-4.156-2.324-6.595-.887-8.636-2.134-15.46-6.317-17.678-15.688z" class="l"/>
    <path d="M195.682 126.765a5.064 5.064 0 00-3.075-3.045c-2.729-3.457-1.875-7.315-1.26-11.152 1.662-3.157 3.612-3.416 5.862-.57 5.641 2.939 11.638 5.376 17.97 4.241 5.39-.967 7 1.431 7.5 5.794a45.4 45.4 0 01.191 7.927c-.245 3.956-1.988 5.075-6.218 4.092-7.29-1.694-13.373-6.658-20.97-7.287z" class="n"/>
    <path d="M176.999 65.731c-6.686-1.646-8.811-6.489-8.93-12.738 5.256-1.436 10.482.087 15.721.219 1.617.041 3.222.65 4.734-.383 10.733-1.789 17.787 4.678 15.9 14.577-7.016 2.954-13.959 2.287-20.88-.378-2.098-.808-3.939-3.029-6.545-1.297z" class="l"/>
    <path d="M189.818 188.932l-1.5-1.454c-4.135-3.558-1.586-7.243.09-10.633.906-1.833 2.935-3.1 3.21-5.388 3.41.515 4.137 3.483 5.43 5.935 4.211 4.029 8.79 7.46 14.63 8.742 3.067.673 6.67.783 5.034 5.62-1.417 4.189-2.607 8.682-8.733 6.963a35.911 35.911 0 01-14.433-7.856 16.66 16.66 0 00-3.728-1.929z" class="l"/>
    <path d="M189.77 106.664c-.77-4.547-.987-9.041 1.319-13.283.416-.584.783-.584 1.09.094a29.1 29.1 0 0023.854 7.688c3.313-.365 6.03-.664 5.832 3.667-.164 3.584 1.115 8.175-4.85 8.722-6.4.586-12.4-.976-18.354-3-2.632-.532-5.169-1.905-7.981-.9-1.441-.651-1.858-1.612-.91-2.988z" class="o"/>
    <path d="M96.924 120.968c6.058-4.006 11.712-8.349 13.337-16.043 2.065 2.075.966 4.52.692 6.8-1.467 12.213-.6 24.47-.767 36.706a3.579 3.579 0 01-3.963.676c-2.226-1.734-1.032-3.822-.61-5.846.465-2.232 1.383-4.559-1.037-6.465-3.054 3.2.664 7.6-2.117 10.718-5.1.493-8.062-1.86-9.107-6.795.731-6.667-.817-13.749 3.572-19.751z" class="p"/>
    <path d="M194.179 157.079a9.292 9.292 0 001.154-.075c4.13 8.439 11.382 12.948 20.192 14.333 5.056.8 5.324 3 4.175 6.716-1.111 3.592-1.57 7.734-7.517 5.588a47.7 47.7 0 01-13.631-7.756c-3.251-.786-4.464-4.115-7.09-5.681-.476-4.661-.779-9.287 2.717-13.125z" class="l"/>
    <path d="M188.451 83.151q.818-.84 1.637-1.678a42.329 42.329 0 0019.637 3.509c3.95-.3 10.515 7.093 10.235 11.042-.193 2.732-2.352 2.733-4.218 2.782-7.583.2-14.765-1.3-21.241-5.465-2.376-1.536-3.4-4.311-5.553-6.052a4.431 4.431 0 01-1.337-2.485 2.28 2.28 0 01.84-1.653z" class="q"/>
    <path d="M223.091 177.082c9.758 5.263 12.331 4.9 19.159-4.486 3.848-5.287 7.849-1.662 10.67-.106 3.209 1.768-.276 4.5-1.627 6.371-9.132 12.631-20.078 13.659-29.813 2.945.574-1.56.038-3.502 1.611-4.724z" class="r"/>
    <path d="M188.239 80.126c-5.044-2.387-6.371-6.519-5.491-11.69 8.668.126 17.375-.367 25.921 1.649a30.715 30.715 0 013.468 4.518c2.748 5.35.976 8.282-5.018 8.2a41.026 41.026 0 01-13.251-2.562c-1.769-.627-3.715-2.86-5.629-.115z" class="o"/>
    <path d="M153.935 236.607c3.964-3.7 9.206-4.263 14.085-5.713a1.1 1.1 0 01.425 1.083c-.091.386-.193.579-.307.579.216 6.666 4.112 11.917 7.151 17.517-14.356 4.841-16.052 3.744-21.354-13.466z" class="o"/>
    <path d="M123.397 230.834c3.789-5.691 10.755-9.261 11.387-17.059 4.077 4.95 4.876 11.977 10.636 15.99 2.436 1.7.225 3.908-1.285 5.435-2.137 2.16-3.916 1.176-5.253-.979-1.638-2.643-3.128-5.379-4.741-8.178-1.55 1.788.126 3.113.244 4.572.206 2.551 5.306 5.178 1.514 7.022-3.753 1.827-9.2 2.619-11.608-3.354a26.283 26.283 0 01-.894-3.449z" class="s"/>
    <path d="M168.137 232.556q-.056-.831-.117-1.662c-.233-5.53 3.869-8.336 7.275-11.579l1.495 4.424c-2.511 7.053 2.78 10.709 6.747 14.655 2.5 2.487 4.483 4.385 1.551 7.712-3.081 3.5-5.539 4.654-9.025-.11-3.125-4.27-3.481-10.06-7.926-13.44z" class="t"/>
    <path d="M111.407 156.932c-20.567 2.464-32.5-8.459-40.206-25.934l2.753-1.3c3.874 1.554 5.2 5.42 7.393 8.417 6.708 9.171 15.416 13.783 26.894 12.67.663-.01 1.324 0 1.986.016 1.704 1.79 1.301 3.99 1.18 6.131z" class="u"/>
    <path d="M110.427 71.745c2.432-8.659 6.319-11.152 14.2-9.106.7 6.107-3.146 11.182-9.81 12.925-3.975 1.609-2.586-2.939-4.39-3.819z" class="v"/>
    <path d="M110.427 71.746c3.051-.548 2.044 3.557 4.386 3.822 1.889.484 4.15 1.016 2.791 3.629-3.077 5.919-3.8 12.551-6.041 18.712l-2.89-11.564c3.368-4.531.71-9.787 1.754-14.599z" class="w"/>
    <path d="M94.288 141.56c2.211 2.835 4.881 4.975 8.53 5.63 1.214-.335 2.127.3 3.038.941l4.328.3.044 2.368-.158.68c-13.472 1.477-27.786-11.478-27.484-24.874l2.652-1.248c2.738 1.937 3.094 5.461 5.226 7.8.661 1.064 1.218 2.185 1.8 3.293.832 1.637 1.92 3.181 2.024 5.11z" class="x"/>
    <path d="M189.342 85.899c3.779 1.053 4.011 4.564 5.159 7.443l-2.316.135a7.654 7.654 0 00-1.092-.094c-5.029-4.963-5.275-5.007-20.545-3.46 4.881-6.426 10.788-8.144 17.9-6.771q.07.994.138 1.989c-2.562 1.427-5.285.912-6.3.869 1.23-.171 4.136.531 7.056-.111z" class="y"/>
    <path d="M208.67 70.085c-8.708.531-17.391.636-25.921-1.647l-5.754-2.707c-1.137-2.1-1.193-3.178 1.66-1.931 8.247 3.6 16.975 3.863 25.769 3.606z" class="z"/>
    <path d="M128.813 204.863c-1.856.59-2.949 3.825-5.352 2.1a7.62 7.62 0 01-2.964-7.454c.325-2.529.873-5.029 1.322-7.54q3.502 6.448 6.994 12.894z" class="aa"/>
    <path d="M188.521 52.83c-6.795 3.117-13.633.78-20.456.164l-5.461-1.944c-.155-.842-1.82-2.739.809-1.905 6.779 2.152 13.728 2.165 20.694 2.3 1.1 1.642 2.868 1.158 4.414 1.385z" class="ab"/>
    <path d="M191.336 109.877c2.984-5.685 4.9.344 7.328.67L197.208 112c-1.67-.165-3.36-2.305-5.007.045-1.469-.251-1.535-1.063-.865-2.168z" class="ac"/>
    <path d="M191.458 170.204c3.555.406 5.223 3.168 7.09 5.681l-1.5 1.506c-2.623-1.235-3.715-3.873-5.433-5.935a3.812 3.812 0 01-.157-1.252z" class="ad"/>
    <path d="M44.72 133.872l-3.911-.017c-15.534-5.4-15.345-20.706-20.523-32.622-.388-.9-.383-2.339.5-2.617 6.616-2.088 9.375-10.351 17.224-10.534a13.006 13.006 0 008.565-3.387c2.355-3.162 4.421-6.513 9.036-2.456 2.126 1.869 5.037.583 7.609-.249 4.2-1.36 8.29-3 12.422-4.53-4.493 1.624-8.927 3.422-13.525 4.743-5.387 1.549-9.442-.391-11.716-5.466-2.379-5.311-1.045-10.583 3.983-13.009a185.277 185.277 0 0127.764-10.25c5.955-1.773 8.4 3.091 10.393 7.7 3.445 10.531 7.282 20.939 11.565 31.125 4.1 9.754-1.889 19.651-9.423 22.83-14.856 6.267-30.065 11.591-45.3 16.837a17.2 17.2 0 00-4.663 1.902z" class="ae"/>
    <path d="M47.716 86.041c-.725.6-1.45 1.71-2.178 1.71-9.065.017-14.588 7.347-22.1 10.5-2.268.951-2.775 1.811-1.84 4.177 2.724 6.9 5.018 13.973 7.772 20.862a13.454 13.454 0 008.284 7.527c1.569.576 3.445.623 3.155 3.042-7.772-1.057-12.383-5.61-14.87-12.9s-3.618-16.032-8.459-21.242c-6.358-6.84-8.7-14.768-11.743-22.712-3.664-9.563 1.778-17.24 11.9-16.65 3 .175 4.3.064 5.948-2.8 2.885-5.013 7.914-6.839 13.653-5.751 1.837.348 3.268 1.778 4.617-1.034 3.087-6.448 9.062-7.188 16.069-6.838-2.578-7.254-5.114-14.1-7.446-21.022-3.026-8.985-.929-14.678 6.183-17.352 7.029-2.642 12.654.457 16.05 9.11 1.931 4.92 3.526 9.973 5.273 14.965-.39 1.018-.858 1.927-2.21 1.663-2.7-1.759-2.981-4.824-3.925-7.491a63.1 63.1 0 00-4.547-10.608c-1.863-3.232-4.4-5.153-8.329-3.9-4.034 1.282-5.633 4.27-5.452 8.327.19 4.193 2.39 7.8 3.541 11.7 1.424 4.83 3.98 9.315 4.408 14.452a6.185 6.185 0 01-3.313 3.853c-6.651.281-12.838 1.237-13.937 9.6a4.032 4.032 0 01-2.411 1.781c-1.8-.075-2.941-1.562-4.5-2.131-6.17-2.265-11.6 1.872-10.4 8.249 1.116 5.917 3.652 11.432 6.512 16.727 3.081 5.71 7.9 2.677 12.183 2.185a2.437 2.437 0 012.112 2.001z" class="af"/>
    <path d="M57.943 47.042l2.471-2.961c3.225 1.23 3.616 4.377 4.359 7.027 1.81 6.454 5.858 4.083 9.655 2.71 3.9-1.411 7.986-2.436 5.466-8.484-1.853-4.447-5.237-8.8-3.13-14.214l1.215-1.495c4.406 10.343 6.792 21.679 14.845 30.229.866 1.543-.055 1.636-1.233 1.52-2.45-6.465-6.445-8.06-12.971-5.113-6.967 3.149-14.3 5.508-21.526 8.063-5.617 1.985-7.4 5.452-5.324 11.172 2.023 5.575 5.442 7.6 11.121 5.472q7.406-2.78 14.859-5.423c1.173-.415 2.775-2.1 3.609-.051.947 2.33-1.4 1.689-2.548 2.1-5.419 1.926-10.837 3.848-16.234 5.833-2.075.763-4.462 1.785-6.173.216-4.451-4.083-6.406-.564-8.69 2.4l-1.3-1.122a37.946 37.946 0 00-3.29-17.513c-1.147-2.73-3.248-5.549-1.119-8.782l1.293-1.507c4.328 1.723 3.755 6.115 5.262 9.489a11.753 11.753 0 016.906-5.667c5.427-1.608 5.836-4.721 3.373-9.171-.775-1.402-1.692-2.952-.896-4.728z" class="ag"/>
    <path d="M91.591 61.374l1.233-1.52c4.4 11.627 9.026 23.173 13.116 34.908a16.207 16.207 0 01-8.126 19.683 252.008 252.008 0 01-53.093 19.429c1.032-3.8 4.7-2.736 7.158-3.679 12.534-4.812 25.224-9.215 37.767-14 13.612-5.2 17.021-12.887 12.129-26.4-3.424-9.466-6.791-18.949-10.184-28.421z" class="ah"/>
    <path d="M82.586 126.604a46 46 0 0012.3 19.3c4.351 4.061 9.468 5.5 15.186 5.571-8.51 2.624-21.309-.816-26.555-7.586-3.489-4.5-6.4-9.449-9.563-14.2z" class="ai"/>
    <path d="M94.288 141.56a7.116 7.116 0 01-3.28-4.9 15.18 15.18 0 011.536-14.24c1.389-.7 2.542-2.11 4.38-1.457-1.316 6.812-.572 13.885-2.636 20.597z" class="aj"/>
    <path d="M89.572 133.666c-3.145-1.885-3.621-5.162-4.333-8.314q2.338-.785 4.678-1.576c1.985 3.37.793 6.629-.345 9.89z" class="ak"/>
    <path d="M89.572 133.666l.344-9.892 2.63-1.351q-.77 7.123-1.537 14.242l-1.437-2.999z" class="al"/>
    <path d="M103.205 194.532c2.288 4 4.973 7.827 5.49 12.6a40.714 40.714 0 01-6.874-11.044q.693-.775 1.384-1.556z" class="am"/>
    <path d="M272.471 154.16c-7.431.467-4.511 8.739-8.752 11.611-6.1 2.922-12.072 2.349-17.681-1.1-2.78-1.709-5.764-3.768-4.035-7.969 1.4.054 2.258-.226 1.405-1.91-1.045-2.063-1.985-4.179-2.971-6.273-3.541-7.5 1.559-13.079 4.276-19.186a7.732 7.732 0 00.113-1.211c.464-3.554 1.8-6.232 6.031-5.994 2.936.139 4.228 2.807 6.386 4.145.811-5.179 4.665-6.31 10.054-3.241.911.518 2.551 6.732 4.292-.164.531-2.1 5.385-.47 7.1 2.129a85.685 85.685 0 016.32 11.247c1.705 3.693-.71 6.276-3.165 8.769-3.106 3.158-7.618 4.878-9.506 9.277z" class="an"/>
    <path d="M242.003 156.701c1.322 6.812 6.954 7.982 12.352 9 3.019.567 6.236.084 9.364.074-5.414 6.294-11.587 3.961-17.434 1.134-3.977-1.924-7.2-4.918-5.371-10.211a.589.589 0 01.463-.318 1.888 1.888 0 01.626.321z" class="ao"/>
    <path d="M244.71 129.332c0 6.713-6.064 12.074-4.276 19.186-5.54-7.949-1.908-13.853 4.276-19.186z" class="ap"/>
    <path d="M272.462 118.318c-5.411 2.72-10.9-.316-16.33.757 5.379-5.085 10.897.668 16.33-.757z" class="aq"/>
    <path d="M250.857 122.128c-2.949 1.054-3.87 4.147-6.031 5.994-3.747-.251-2.635-2.517-1.58-4.324 1.847-3.165 4.518-3.641 7.611-1.67z" class="ap"/>
    <path d="M191.5 141.343c-3.531 9.313-6.1 19.043-11.8 27.419-2.732-3.419.115-6.32.86-9.423.419-1.753 2.294-3.631.438-5.275-1.386-1.228-3.283-.258-4.772.455-5.607 2.682-10.955 5.826-17.358 6.668-2.748.362-4.411 3.017-4.1 6 .32 3.09 3.031 3.338 5.4 3.755 6.747 1.19 13.161-.557 19.578-2.259-.3 4.209-3.407 5.484-6.792 6.165-7.695 1.553-15.236-.139-22.711-1.636-3.622-.725-4.093-4.447-5.01-7.322-1.224-3.842-2.017-7.823-2.994-11.745-1.794-1.415-1.62-3.413-1.591-5.366.512-4.391 2.674-3.851 5.348-1.8 15.813 4.488 30.106.284 43.75-7.656 1.297.059 2.202.453 1.754 2.02z" class="ar"/>
    <path d="M140.709 129.605c-4.472 2.247-8.727 2.6-12.49-1.412-5.282-5.479-6.142-11.69-2.91-18.474 3.067-6.438 9.115-8.149 15.27-4.435 7.389 8.854 7.4 14.43.048 24.384z" class="as"/>
    <path d="M189.995 125.33c-3.149 4-6.638 8.15-12.322 5.916-6.954-2.732-8.671-8.8-8.046-15.754 1.327-4.662 3.2-8.871 8.479-10.285 11.259-.377 15.617 7.004 11.889 20.123z" class="at"/>
    <path d="M152.087 202.512c2.923-2.88-.911-10.386 5.21-10.07 5.462.281 5.13 6.795 4.746 11.085-.281 3.133-.164 8.513-4.97 8.059-4.133-.39-3.272-5.709-4.986-9.074z" class="n"/>
    <path d="M191.499 141.342l-1.631-1.683c-11.458 8-24.638 8.964-37.959 9.071-2.366.02-4.794-.3-7.2-.355-.944.232-2.066-4.663-2.854.1-2.5-.13-2.179-1.476-1.317-3.057 7.373-1.854 14.861.116 22.395-.983 10.55-1.54 20.485-4.187 29.788-9.309q.252 1.54.509 3.08z" class="au"/>
    <path d="M140.579 105.283c-9.967-2.93-17.407 4.148-15.506 15.036.474 2.724 2.065 5.253 3.145 7.873-8.086-6.358-8.173-18.963.171-24.384 4.067-2.642 8.795-4.422 12.19 1.475z" class="av"/>
    <path d="M189.994 125.331c-.074-2.343-.189-4.685-.216-7.028-.1-9.333-3.561-12.476-13.071-11.843-1.392.342-1.778-.223-1.36-1.511 5.294-3.521 9.908-1.306 14.426 1.714.521 1.067 1.043 2.131 1.563 3.206q.437 1.1.869 2.179c1.16 3.853.419 7.776.4 11.672q-.648.7-1.3 1.4-.647.133-1.311.211z" class="aw"/>
    <path d="M122.917 93.839c4.76-13.376 12.335-14.45 21.857-4-7.525-1.008-14.612-1.77-21.857 4z" class="ax"/>
    <path d="M140.627 129.667c6.075-1.755 7.419-7.778 11.136-12.49.257 4.093-1.543 6.921-3.409 9.6-4.5 6.463-4.565 6.418 1.917 13.192-5.988-2.023-8.659-5.381-9.562-10.364z" class="ay"/>
    <path d="M143.893 67.026c1.276 3.977 1.915 6.834-.1 9.6-.154.212-1.512-.032-1.837-.441-2.463-3.089-1.2-5.73 1.937-9.159z" class="az"/>
    <path d="M175.346 104.948l1.362 1.511c-3.113 2.421-5.1 5.723-7.082 9.032-.006-4.55 1.405-8.335 5.72-10.543z" class="ba"/>
    <path d="M140.54 145.417l1.317 3.057q.189 2.836.381 5.674c-5.188-2.012-3.52-5.355-1.698-8.731z" class="bb"/>
    <path d="M105.857 148.132a2.972 2.972 0 01-3.036-.941 14.437 14.437 0 01-1.395-6.911c.2-2.8-.109-7.115 3.122-6.86 3.657.289 3.9 4.881 3.7 8.081-.139 2.25-1.549 4.422-2.391 6.631z" class="bc"/>
    <path d="M189.342 85.898c-3.312 5.273-7.715-1.256-11.258 1.609 2.988-3.982 6.773-3.016 10.5-2.372a2.541 2.541 0 00.758.763z" class="bd"/>
    <path d="M76.764 31.12c1.936 5.671 3.732 11.4 5.869 16.991 1.032 2.7.986 3.889-2.12 5.268-13.915 6.183-13.847 6.336-20.1-9.3-2.664-7.443-5.52-14.825-7.94-22.347-2.474-7.688-.629-11.984 5.45-14.049 5.574-1.892 9.584.426 12.528 7.47 2.207 5.279 4.217 10.642 6.313 15.967z" class="ae"/>
    <path d="M42.004 58.623c1.752 4.95 3.59 9.871 5.227 14.859 1.272 3.873 2.7 7.859-.818 11.436-10.257 4.56-12.96 3.492-16.868-6.761-1.286-3.376-2.376-6.825-3.693-10.187-1.924-4.91-2.562-9.526 3.062-12.431 5.131-2.65 9.755-2.302 13.09 3.084z" class="ae"/>
    <path d="M16.903 62.798a5.822 5.822 0 016.084 4.116c2.384 6.291 5.017 12.5 7.182 18.861 1.443 4.241-.106 7.483-4.453 9.265-4.088 1.676-8.2 2.532-10.884-1.881a64.8 64.8 0 01-7.826-20.807c-1.131-5.539 3.706-9.744 9.897-9.554z" class="be"/>
    <path d="M57.943 47.042a26.627 26.627 0 012.439 3.5c4.031 8.281 4.051 8.414-4.443 11.81a12.089 12.089 0 00-7.488 7.6c-1.976-4.923-3.566-8.878-5.155-12.834.783-9.245 5.311-12.361 14.647-10.076z" class="bf"/>
    <path d="M179.744 168.685c-6.016 6.27-13.693 4.241-20.888 3.882-2.453-.122-6.422.38-6.708-3.7-.3-4.341 1.506-9.593 5.6-9.673 7.309-.145 12.425-4.425 18.5-6.857 2.724-1.092 6.048-2.307 8.127-.232 1.769 1.763-1.225 4.209-1.62 6.473-.612 3.523-3.661 6.3-3.061 10.18z" class="bg"/>
    <path d="M144.71 148.375c5.363-2.783 11.146-.793 16.711-1.433a113.559 113.559 0 0028.447-7.283c-.087.467-.007 1.1-.283 1.379-7.746 7.953-34.282 12.268-44.875 7.337z" class="bh"/>
    <path d="M143.848 116.463c-.193 4.947-1.2 9.435-6.158 9.774-5.3.362-6.51-4.353-6.609-8.558-.1-4.272 1.3-8.891 6.186-9.206 5.231-.337 6.172 4.288 6.581 7.99z" class="bi"/>
    <path d="M187.086 117.604c-.426 4.021-1.17 8.836-6.789 8.826-4.769-.01-6.086-4.392-6.077-8.355.012-4.457 1.13-9.326 6.764-9.248 4.643.066 6.013 4.067 6.102 8.777z" class="bi"/>
    <path d="M138.591 87.216l-10.456.666c3.695-4.328 3.695-4.328 10.456-.666z" class="bj"/>
  </g>
</svg>
