<?xml version="1.0" encoding="UTF-8" standalone="no"?>
<svg xmlns="http://www.w3.org/2000/svg" width="95.9" height="89.4" viewBox="0 0 25.4 23.7">
  <path d="M 48.328125 0 C 10.606605 0 10.606136 0.00038069713 6.8339844 2.2636719 C 0.044110841 6.413039 0.04296875 7.544773 0.04296875 41.494141 C 0.04296875 75.443508 0.4208019 76.196598 7.5878906 79.96875 L 7.9648438 79.96875 C 12.114211 82.232041 13.245327 82.232422 39.650391 82.232422 C 63.037733 82.232422 66.811452 82.233208 68.320312 81.101562 C 69.451958 79.592702 69.828911 78.838939 68.697266 77.330078 C 67.942835 75.444002 66.811358 75.443359 60.021484 75.443359 C 52.099965 75.443359 52.098586 75.443384 47.949219 69.785156 C 44.554282 65.635789 43.800257 63.749095 44.554688 62.240234 A 314.59747 314.59747 0 0 1 58.134766 44.511719 C 70.960082 27.91425 70.960126 27.91468 77.75 35.458984 C 90.575317 49.793162 91.330197 50.547661 93.970703 49.416016 C 95.856779 48.28437 95.855469 47.905682 95.855469 29.044922 C 95.478254 7.9208709 95.102374 7.1677315 88.3125 1.8867188 C 86.049209 0.00064276844 84.540784 0 48.328125 0 z M 46.441406 6.4121094 C 83.408495 6.4121094 86.424995 7.1673012 87.556641 10.939453 C 88.688286 13.579959 88.688286 36.212891 87.556641 36.212891 C 87.179425 36.212891 83.408871 32.440645 79.636719 27.914062 C 75.487352 23.38748 71.336462 19.615234 70.582031 19.615234 A 124.48101 124.48101 0 0 0 53.607422 38.476562 C 46.063118 48.661373 38.519531 57.335938 38.519531 57.335938 C 38.142316 57.335937 35.501572 54.69598 33.238281 50.923828 C 25.693977 41.493448 25.694695 41.493448 18.150391 50.923828 C 13.246593 57.336486 12.868735 59.600514 16.263672 61.109375 C 17.395317 61.48659 18.904153 60.353659 21.921875 57.335938 C 24.939597 53.563786 25.694526 53.186714 26.826172 54.318359 L 41.914062 73.933594 L 42.291016 73.933594 C 42.291016 75.065239 39.274011 75.443359 27.203125 75.443359 C 4.9474284 75.443359 6.8339844 78.459801 6.8339844 40.738281 C 6.8339844 11.315496 6.8343651 11.316026 9.0976562 9.0527344 C 11.738163 6.412228 11.737608 6.4121094 46.441406 6.4121094 z" transform="translate(-.01) scale(.2651)" style="fill:#e54436;fill-opacity:1;stroke-width:0.998047"/>
  <path d="M 7.7,7.2 C 8.4,6.3 7.3,5 6.4,5.6 5.8,6 5.7,6.6 6.1,7.2 a 1,1 0 0 0 1.6,0 z M 5,8.6 C 4,7.8 3.7,6.3 4.5,5 6,2.5 9.8,3.6 9.8,6.5 9.8,7.4 9.6,7.8 8.8,8.5 7.7,9.7 6.2,9.7 5,8.7 Z" style="fill:#e54436;fill-opacity:1;stroke-width:0.264583"/>
  <g>
    <path d="m 21,23.4 c -0.3,-0.2 -0.4,-1.4 -0.4,-3.3 0,-1.7 0,-3 -0.2,-3 l -0.8,0.6 c -0.7,0.8 -1.4,0.9 -1.9,0.3 -0.4,-0.5 0,-1 1.3,-2.3 1.3,-1.3 2.2,-1.6 3.3,-1.2 1.2,0.5 3.2,2.6 3,3.3 -0.1,0.8 -1.2,0.7 -2,-0.1 -0.8,-0.7 -0.8,-0.7 -0.8,2.2 0,2.3 -0.1,3 -0.4,3.4 -0.5,0.5 -0.7,0.5 -1.1,0 z" class="upload-up-arrow" style="fill:#e54436;fill-opacity:1;stroke-width:0.264583"/>
  </g>
</svg>
