<?xml version="1.0" standalone="no"?>
<!DOCTYPE svg PUBLIC "-//W3C//DTD SVG 20010904//EN"
 "http://www.w3.org/TR/2001/REC-SVG-20010904/DTD/svg10.dtd">
<svg version="1.0" xmlns="http://www.w3.org/2000/svg"
 width="901.000000pt" height="901.000000pt" viewBox="0 0 901.000000 901.000000"
 preserveAspectRatio="xMidYMid meet">
<metadata>
Created by potrace 1.11, written by Peter Selinger 2001-2013
</metadata>
<g transform="translate(0.000000,901.000000) scale(0.100000,-0.100000)"
fill="#000000" stroke="none">
<path d="M1830 8613 c-152 -25 -320 -136 -383 -251 -47 -87 -60 -153 -55 -281
4 -103 10 -130 47 -238 22 -68 64 -179 91 -248 51 -129 60 -174 37 -194 -8 -6
-46 -24 -85 -40 -39 -16 -124 -62 -189 -102 -158 -97 -216 -119 -333 -129
-142 -13 -214 -51 -302 -159 -49 -60 -76 -74 -193 -100 -381 -83 -517 -276
-445 -631 41 -202 139 -422 335 -755 152 -259 256 -472 311 -638 64 -197 111
-285 204 -378 133 -133 262 -183 470 -183 180 1 216 11 701 197 96 36 109 26
178 -132 78 -179 175 -300 443 -550 l182 -170 13 29 c14 35 30 37 81 11 59
-29 193 -46 375 -46 l168 0 19 -65 c10 -36 44 -155 76 -265 63 -222 155 -499
207 -621 59 -141 236 -453 362 -638 67 -100 155 -246 195 -326 64 -127 84
-155 152 -225 98 -100 99 -113 25 -190 -45 -47 -59 -55 -89 -55 -47 0 -72 29
-163 188 -38 67 -74 121 -80 119 -32 -11 3 -151 54 -216 43 -55 53 -84 35
-109 -33 -48 -197 -79 -271 -51 -60 22 -109 89 -133 179 -28 111 -160 385
-222 462 -43 53 -288 376 -341 449 -43 59 -195 352 -238 455 -48 119 -85 239
-154 504 -31 118 -60 219 -64 223 -14 15 -36 -57 -34 -113 0 -30 15 -99 32
-154 17 -54 31 -109 31 -121 0 -12 20 -80 44 -151 139 -405 319 -722 577
-1015 113 -128 234 -341 254 -450 6 -33 4 -39 -32 -68 -21 -17 -81 -47 -133
-67 -210 -79 -305 -146 -356 -250 -46 -94 -25 -175 70 -269 135 -134 339 -218
712 -294 515 -105 1107 -117 1714 -36 417 57 746 176 909 329 67 64 91 110 91
177 0 110 -61 176 -281 303 -85 49 -156 91 -158 93 -11 8 53 116 143 245 124
176 161 252 198 402 16 66 65 211 108 321 83 210 125 342 136 424 l6 49 117
-58 c320 -159 507 -156 718 12 79 62 135 129 250 295 105 152 194 249 277 303
98 64 105 69 121 99 8 16 23 64 35 107 11 44 38 114 61 158 22 43 38 81 35 84
-3 2 -26 -3 -51 -13 -59 -22 -84 -61 -124 -192 -30 -98 -34 -105 -94 -163 -92
-89 -130 -105 -252 -105 -95 0 -105 2 -200 43 -185 79 -255 146 -263 250 -5
73 10 113 40 111 54 -5 61 -1 55 31 -4 16 -44 103 -89 192 l-82 163 -1 95 c0
85 3 101 29 154 17 35 60 92 103 136 82 86 90 111 41 125 -28 9 -33 15 -36 45
-6 68 83 170 148 170 14 0 62 -13 107 -29 61 -22 98 -42 141 -80 32 -28 61
-51 64 -51 3 0 8 14 12 31 13 68 76 119 145 119 46 0 143 -40 172 -71 24 -26
66 -49 89 -49 5 0 14 17 21 38 18 57 28 65 76 59 74 -8 128 -49 191 -145 89
-138 182 -325 182 -369 -1 -86 -70 -175 -236 -303 -89 -69 -173 -157 -174
-182 0 -9 64 14 121 42 69 35 146 99 250 207 108 111 137 168 125 249 -6 50
-153 349 -227 465 -120 186 -248 259 -455 259 -57 0 -115 5 -131 11 -15 6 -57
11 -93 12 -83 0 -140 -22 -292 -114 -80 -48 -145 -80 -196 -95 l-77 -22 -46
-90 c-55 -106 -84 -210 -100 -347 -12 -112 -9 -181 26 -510 14 -126 27 -261
31 -298 5 -59 10 -74 38 -105 64 -72 70 -109 31 -188 -64 -127 -169 -214 -257
-214 -64 0 -231 64 -271 104 -27 27 -30 122 -7 217 44 188 51 276 62 799 6
278 11 528 11 555 0 30 -13 93 -32 155 -36 113 -37 148 -11 310 30 187 -22
411 -146 625 -107 185 -113 200 -124 273 -5 39 -26 114 -46 164 -75 191 -251
522 -342 644 -23 30 -74 74 -132 114 -95 64 -177 142 -440 416 -129 134 -145
147 -345 279 -195 127 -220 148 -345 275 -142 144 -183 172 -278 190 -131 24
-300 -53 -436 -201 -67 -72 -100 -134 -127 -237 -18 -70 -19 -96 -13 -277 7
-211 2 -259 -38 -385 -26 -80 -68 -167 -119 -242 -22 -31 -44 -70 -50 -85 -25
-66 -77 -83 -119 -38 -34 36 -101 59 -156 52 -69 -7 -202 -79 -263 -140 -105
-106 -152 -278 -119 -437 14 -71 6 -106 -31 -125 l-29 -15 -16 48 c-8 26 -26
93 -40 149 -45 180 -142 396 -306 683 -227 397 -270 490 -374 814 -81 250
-165 468 -223 578 -108 207 -312 316 -523 281z m206 -167 c67 -31 119 -78 165
-148 45 -71 69 -129 174 -428 238 -676 346 -914 492 -1085 36 -41 42 -56 287
-710 170 -453 169 -447 174 -557 5 -117 -16 -202 -76 -293 -59 -92 -125 -145
-269 -215 -341 -167 -696 -308 -1088 -433 -167 -54 -486 -140 -492 -133 -10 9
26 55 55 70 15 7 57 19 94 25 37 6 108 27 158 46 49 20 287 108 528 196 695
256 746 278 853 377 108 99 149 193 149 343 0 58 -8 117 -24 180 -26 104 -342
994 -381 1074 -71 146 -192 183 -367 110 -156 -65 -348 -138 -523 -200 -276
-96 -319 -125 -346 -226 -24 -89 29 -247 106 -318 83 -77 154 -70 450 39 121
44 247 92 280 105 77 32 90 31 105 -5 15 -37 1 -60 -38 -60 -14 0 -120 -34
-236 -76 -345 -124 -405 -144 -435 -144 -17 0 -53 16 -87 40 -44 30 -69 40
-99 40 -37 0 -46 -6 -125 -89 l-85 -89 -77 -11 c-113 -16 -188 -50 -373 -172
-92 -59 -192 -120 -223 -135 -66 -31 -102 -60 -102 -85 0 -20 232 -651 266
-725 30 -63 94 -137 148 -172 23 -14 72 -37 111 -52 49 -18 74 -33 85 -52 8
-15 11 -30 7 -34 -12 -12 -111 15 -187 52 -162 78 -240 203 -340 548 -84 289
-114 354 -218 476 -124 145 -198 283 -305 570 -76 202 -92 279 -76 366 21 115
82 194 189 243 47 21 74 26 188 31 l134 5 36 41 c21 22 53 63 72 90 86 120
230 166 406 129 96 -20 102 -18 135 48 29 57 96 125 149 152 67 34 123 46 241
54 l106 6 -68 190 c-173 481 -192 543 -197 645 -5 109 5 156 47 222 81 128
312 197 447 134z m2840 -370 c31 -14 64 -41 85 -67 68 -86 156 -165 244 -218
122 -73 189 -125 225 -175 29 -38 29 -42 13 -54 -61 -44 -311 -88 -443 -77
-36 3 -123 9 -195 15 -71 6 -155 13 -185 16 l-55 5 30 -19 c105 -66 262 -103
435 -103 118 0 169 7 370 47 71 14 97 15 160 5 150 -23 300 -123 355 -236 33
-66 37 -128 10 -155 -27 -27 -138 -41 -305 -40 -195 1 -312 15 -497 61 -61 14
-71 9 -57 -28 14 -42 149 -85 349 -113 189 -26 334 -24 430 8 169 56 348 20
453 -92 66 -70 87 -128 87 -241 l0 -89 -34 -10 c-48 -14 -392 9 -511 34 -52
10 -143 36 -201 56 -121 43 -144 41 -127 -6 9 -27 25 -39 106 -76 52 -24 121
-51 152 -59 119 -31 308 -46 534 -43 l219 3 39 -50 c86 -109 121 -228 83 -282
-8 -12 -35 -29 -60 -39 -101 -38 -404 3 -560 76 -75 35 -95 37 -126 10 l-24
-19 30 -25 c87 -72 364 -136 590 -136 92 0 104 -3 150 -29 65 -37 155 -133
190 -202 38 -72 40 -143 6 -170 -20 -17 -40 -19 -156 -19 -155 0 -268 18 -391
61 -95 33 -213 93 -219 112 -47 137 -74 181 -124 208 l-34 18 -27 -29 c-38
-40 -81 -45 -164 -20 -38 12 -86 20 -107 18 -31 -3 -36 -1 -26 10 37 46 126
63 240 48 l57 -7 0 30 c0 24 -5 32 -22 35 -179 36 -345 -13 -475 -140 -36 -36
-64 -66 -61 -69 2 -2 76 3 164 11 170 17 271 14 325 -9 19 -8 61 -37 93 -66
33 -28 65 -51 73 -51 7 0 30 -15 50 -33 90 -80 216 -147 354 -188 66 -20 96
-23 287 -23 199 -1 215 -2 228 -20 21 -29 27 -79 22 -175 -9 -160 -43 -186
-238 -186 -139 0 -208 11 -385 62 -103 30 -127 41 -171 79 -29 24 -62 44 -75
44 -13 0 -38 -14 -55 -31 l-32 -31 -25 49 c-23 44 -34 54 -105 90 -147 75
-234 77 -358 8 -75 -42 -138 -110 -158 -173 -17 -49 -33 -151 -23 -142 3 3 28
40 55 81 28 42 75 102 106 133 53 52 60 56 104 56 134 0 243 -40 295 -107 46
-61 59 -121 64 -310 5 -170 6 -173 28 -173 12 0 32 11 44 24 22 24 23 29 20
208 -2 101 0 189 4 196 17 26 61 14 205 -54 41 -19 115 -49 165 -67 91 -32 95
-32 277 -32 206 0 223 -5 254 -69 40 -84 49 -377 13 -443 -40 -75 -150 -63
-391 43 -181 79 -323 130 -391 140 l-50 6 48 -36 c135 -105 336 -199 578 -271
48 -14 105 -39 128 -55 113 -82 158 -262 99 -392 -15 -31 -38 -64 -53 -74 -24
-16 -33 -16 -88 -5 -183 38 -302 97 -507 253 -71 54 -130 95 -130 90 0 -20
102 -151 162 -208 115 -111 242 -175 408 -209 151 -30 176 -61 167 -203 -10
-154 -44 -202 -144 -202 -131 0 -254 58 -482 230 -95 72 -177 130 -182 130
-12 0 2 -27 54 -105 110 -162 279 -274 492 -324 160 -38 173 -43 197 -68 30
-33 28 -91 -7 -202 -45 -141 -95 -167 -228 -122 -135 47 -385 197 -432 259
-65 87 -146 152 -190 152 -24 0 -18 -21 30 -92 42 -64 138 -153 274 -256 88
-67 203 -121 325 -152 87 -22 116 -34 133 -55 29 -33 29 -53 -2 -145 -65 -193
-123 -228 -292 -175 -115 35 -260 111 -348 180 -70 55 -185 122 -185 108 0 -5
24 -39 53 -78 106 -141 253 -236 455 -294 57 -16 114 -37 128 -46 52 -33 55
-112 10 -211 -42 -92 -99 -104 -250 -53 -139 46 -303 139 -470 266 l-50 38 27
-50 c80 -146 241 -261 482 -344 118 -41 132 -49 145 -82 26 -62 -44 -200 -125
-246 -134 -76 -417 46 -648 280 -96 96 -99 93 -41 -32 51 -110 129 -182 280
-258 65 -33 144 -68 175 -77 71 -20 89 -40 89 -99 0 -87 -67 -185 -167 -244
-50 -29 -114 -34 -158 -11 -45 24 -158 131 -211 201 -48 63 -123 210 -125 243
-2 44 -28 -45 -29 -96 0 -88 42 -164 152 -274 150 -150 168 -173 168 -212 0
-19 -6 -47 -14 -62 -17 -31 -91 -105 -123 -121 -83 -42 -174 35 -253 218 -63
145 -97 206 -137 247 -34 36 -38 37 -41 18 -10 -65 51 -229 148 -400 34 -60
62 -113 63 -118 4 -19 -238 -86 -312 -86 -55 0 -121 29 -157 67 -41 44 -88
147 -149 324 -91 263 -132 334 -381 651 -77 97 -164 216 -194 265 -30 48 -83
129 -118 178 -499 702 -702 1658 -607 2855 49 611 92 806 251 1126 84 170 205
361 358 563 l103 136 38 180 c34 156 39 196 38 300 -1 66 -1 164 -2 218 0 54
4 119 9 144 34 150 161 282 331 343 74 27 142 25 205 -4z m-1002 -1411 c16 -7
18 -16 14 -74 -6 -82 -33 -146 -88 -205 -44 -47 -124 -99 -172 -111 -38 -10
-35 -17 13 -37 40 -17 41 -19 36 -55 -3 -21 -21 -76 -40 -123 -20 -47 -56
-159 -81 -250 -25 -91 -51 -182 -58 -203 l-14 -38 -43 178 -44 178 24 45 c23
43 24 55 25 225 0 156 3 187 21 235 49 132 93 191 168 227 44 21 60 24 135 20
47 -3 93 -8 104 -12z m-397 -1385 c3 -13 1 -63 -6 -110 -24 -169 -31 -332 -31
-756 l0 -431 -92 4 c-64 4 -102 11 -123 23 -16 10 -44 21 -62 25 -82 17 -291
204 -311 278 -8 27 -4 90 14 249 13 117 24 218 24 223 0 17 77 55 111 55 34 0
82 31 202 128 113 92 214 239 233 341 6 32 8 33 21 15 8 -10 17 -30 20 -44z
m4863 -349 l125 -28 -60 -8 c-35 -5 -117 -3 -201 5 -77 7 -154 10 -170 7 -27
-5 -28 -4 -9 10 67 51 138 54 315 14z m-5537 -328 c-3 -82 -7 -150 -9 -152 -8
-9 -66 54 -83 89 -17 33 -37 101 -43 144 -2 15 10 24 62 42 36 12 68 23 72 23
4 1 5 -65 1 -146z m-193 -25 c108 -267 324 -534 501 -620 82 -40 193 -68 265
-68 38 0 46 -2 36 -12 -9 -9 -59 -13 -175 -13 -189 0 -259 15 -415 91 -138 67
-206 138 -376 397 -76 115 -136 210 -134 211 3 3 250 93 259 95 3 1 20 -36 39
-81z m5236 -1319 c87 -50 103 -73 82 -116 -20 -41 -167 -221 -219 -268 -230
-211 -471 -214 -711 -10 -75 63 -77 66 -71 102 7 51 22 102 33 108 5 3 36 -8
68 -24 133 -67 236 -86 307 -57 57 24 102 65 191 177 47 59 99 114 117 123 52
27 114 16 203 -35z"/>
<path d="M1818 8381 c-71 -23 -118 -52 -156 -96 -44 -49 -55 -95 -49 -194 5
-90 44 -215 197 -636 197 -543 254 -637 381 -622 100 12 375 135 399 179 17
31 29 -12 -125 432 -102 296 -258 696 -301 776 -83 153 -202 209 -346 161z"/>
<path d="M1533 7154 c-88 -31 -151 -127 -172 -260 -8 -55 -7 -59 71 -255 l80
-199 24 49 c34 67 111 136 192 173 187 84 213 99 229 133 15 32 15 37 -7 97
-29 81 -70 162 -108 215 -26 34 -39 43 -82 52 -70 15 -176 12 -227 -5z"/>
<path d="M955 6905 c-82 -34 -135 -73 -163 -120 -20 -35 -22 -50 -19 -125 4
-77 13 -108 89 -315 47 -126 99 -258 116 -292 91 -179 184 -204 410 -111 63
26 76 36 100 77 41 69 37 151 -15 306 -116 349 -165 475 -204 519 -78 89 -192
111 -314 61z"/>
<path d="M444 6650 c-138 -28 -227 -122 -227 -240 0 -58 35 -205 79 -336 37
-113 155 -353 195 -398 58 -67 131 -82 240 -50 163 49 243 141 223 258 -7 46
-65 207 -178 496 -61 155 -83 202 -110 227 -52 49 -123 62 -222 43z"/>
<path d="M4059 6006 c-78 -42 -147 -134 -198 -263 l-20 -52 60 39 c67 43 144
75 223 92 53 11 343 6 381 -7 39 -13 -137 143 -197 175 -86 46 -182 52 -249
16z m205 -78 c63 -32 56 -34 -124 -43 l-135 -7 35 37 c67 71 107 73 224 13z"/>
<path d="M4072 5410 c-186 -93 -280 -271 -251 -475 13 -92 62 -196 127 -265
56 -59 58 -50 8 47 -45 90 -59 156 -54 267 3 84 9 111 32 163 33 73 104 144
174 175 55 25 176 35 240 20 23 -5 42 -8 42 -6 0 11 -77 87 -101 100 -53 27
-128 18 -217 -26z"/>
<path d="M4233 5219 c-51 -15 -100 -71 -119 -135 -25 -86 -17 -243 16 -309 35
-69 76 -95 154 -95 81 0 131 28 164 92 30 58 47 174 38 250 -9 68 -50 154 -88
182 -31 22 -116 30 -165 15z"/>
<path d="M5577 5206 c-73 -26 -108 -79 -128 -190 -15 -89 -4 -182 29 -248 77
-152 293 -120 342 51 18 61 23 173 11 231 -29 135 -133 199 -254 156z"/>
<path d="M4691 4885 c-22 -36 -59 -94 -82 -129 -47 -75 -124 -151 -175 -172
-34 -14 -36 -17 -29 -52 11 -57 52 -130 101 -178 42 -40 163 -109 173 -98 3 2
-18 28 -46 57 -84 87 -99 117 -95 184 1 11 34 70 74 130 88 134 118 197 125
268 3 30 3 55 1 55 -3 0 -24 -29 -47 -65z"/>
<path d="M5905 4339 c-190 -93 -462 -175 -730 -220 -112 -18 -165 -21 -380
-20 -205 1 -405 -11 -405 -24 0 -1 8 -22 19 -46 11 -25 22 -82 25 -134 12
-152 123 -573 167 -629 33 -41 69 -55 237 -88 141 -28 177 -32 347 -32 173 -1
197 1 265 22 90 29 144 76 156 137 4 22 24 68 45 102 84 137 155 300 259 598
29 83 68 183 86 224 19 41 34 86 34 102 0 31 -9 59 -19 58 -3 0 -51 -23 -106
-50z m-20 -157 c-124 -111 -439 -216 -765 -253 -205 -23 -500 1 -584 48 -16 9
-13 12 25 28 37 16 85 20 299 25 276 8 401 25 650 91 114 30 371 113 400 129
10 6 16 4 19 -8 2 -10 -15 -34 -44 -60z"/>
</g>
</svg>
